<svg xmlns="http://www.w3.org/2000/svg" width="106.264" height="106.264" viewBox="0 0 106.264 106.264"><path d="M53.132,106.264a53.132,53.132,0,1,1,53.132-53.132A53.2,53.2,0,0,1,53.132,106.264ZM97.94,60.4a66.559,66.559,0,0,0-28.266-1.939,196.268,196.268,0,0,1,8.82,32.357A45.518,45.518,0,0,0,97.953,60.4ZM70.864,94.973a188.8,188.8,0,0,0-9.7-34.4l-.292.089C35.24,69.58,26.074,87.335,25.277,89a45.264,45.264,0,0,0,45.56,5.986ZM19.415,83.55C20.442,81.779,32.9,61.168,56.306,53.6c.6-.2,1.2-.372,1.793-.531-1.151-2.59-2.391-5.167-3.684-7.7A167.277,167.277,0,0,1,7.775,51.8l-.018,1.381A45.243,45.243,0,0,0,19.42,83.536ZM8.7,43.9a168.518,168.518,0,0,0,41.961-5.526A289.893,289.893,0,0,0,33.836,12.127,45.494,45.494,0,0,0,8.7,43.874ZM42.505,9.086A242.158,242.158,0,0,1,59.428,35.651C75.567,29.608,82.407,20.42,83.218,19.26A45.281,45.281,0,0,0,42.505,9.072Zm45.76,15.421C87.3,25.791,79.7,35.545,62.921,42.395c1.063,2.17,2.081,4.361,3.011,6.579.354.8.664,1.594.974,2.347,15.1-1.9,30.108,1.151,31.613,1.461A44.914,44.914,0,0,0,88.292,24.534Z"/></svg>