<svg xmlns="http://www.w3.org/2000/svg" width="108.962" height="106.264" viewBox="0 0 108.962 106.264"><path d="M54.481.3a54.483,54.483,0,0,0-17.23,106.169c2.724.513,3.723-1.171,3.723-2.62,0-1.294-.045-4.722-.068-9.262-15.155,3.287-18.351-7.31-18.351-7.31-2.479-6.288-6.061-7.968-6.061-7.968-4.935-3.378.381-3.31.381-3.31,5.471.381,8.345,5.612,8.345,5.612,4.858,8.331,12.753,5.925,15.868,4.531a11.615,11.615,0,0,1,3.45-7.287c-12.1-1.362-24.816-6.047-24.816-26.923a21.018,21.018,0,0,1,5.607-14.619c-.613-1.376-2.452-6.915.477-14.419,0,0,4.563-1.462,14.982,5.584a51.364,51.364,0,0,1,27.24,0c10.351-7.046,14.914-5.584,14.914-5.584,2.928,7.5,1.09,13.044.545,14.419a21.1,21.1,0,0,1,5.584,14.619c0,20.93-12.735,25.538-24.857,26.877,1.907,1.634,3.677,4.976,3.677,10.079,0,7.291-.068,13.148-.068,14.919,0,1.43.953,3.133,3.746,2.588A54.414,54.414,0,0,0,54.481.3" transform="translate(0 -0.297)"/></svg>