<svg xmlns="http://www.w3.org/2000/svg" width="130.744" height="106.264" viewBox="0 0 130.744 106.264"><path d="M130.488,14.9A54.478,54.478,0,0,1,115.1,19.122,27.009,27.009,0,0,0,126.882,4.289a55.363,55.363,0,0,1-17.034,6.45A26.794,26.794,0,0,0,63.485,29.031a27.427,27.427,0,0,0,.692,6.123A75.909,75.909,0,0,1,8.934,7.23,26.267,26.267,0,0,0,5.306,20.713,26.806,26.806,0,0,0,17.225,43.026,26.716,26.716,0,0,1,5.088,39.67V40A26.818,26.818,0,0,0,26.584,66.3a27.048,27.048,0,0,1-12.05.463,26.892,26.892,0,0,0,25.08,18.614A53.756,53.756,0,0,1,6.374,96.841,56.89,56.89,0,0,1,0,96.476,76.239,76.239,0,0,0,41.166,108.51c49.321,0,76.259-40.834,76.259-76.188,0-1.139,0-2.288-.082-3.432a54.125,54.125,0,0,0,13.4-13.88l-.256-.109Z" transform="translate(0 -2.246)"/></svg>